<svg xmlns="http://www.w3.org/2000/svg" xmlns:xlink="http://www.w3.org/1999/xlink" version="1.1" x="0px" y="0px" viewBox="0 0 1552.9 311.8" style="enable-background:new 0 0 1552.9 311.8;" xml:space="preserve">
<style type="text/css">
	.st0{fill:#FFFFFF;}
	.st1{fill:#434343;}
	.st2{opacity:0.2;fill:#EF446D;}
	.st3{fill:#FAA31A;}
	.st4{opacity:0.4;fill:#948531;}
	.st5{opacity:0.85;fill:#948531;}
	.st6{opacity:0.2;fill:#948531;}
	.st7{fill:#948531;}
	.st8{opacity:0.4;fill:#FAA31A;}
	.st9{opacity:0.2;fill:#FAA31A;}
	.st10{opacity:0.85;fill:#FAA31A;}
	.st11{fill:none;}
	.st12{opacity:0.4;fill:#EF446D;}
	.st13{fill:#EF446D;}
	.st14{opacity:0.85;fill:#EF446D;}
	.st15{fill:#4F5151;}
</style>
<g id="Layer_2">
</g>
<g id="Layer_1">
	<g>
		<g>
			<path class="st2" d="M131.4,92.1L131.4,92.1C131.4,92.1,131.4,92.1,131.4,92.1c-10.6,11-18.6,25.1-22.6,41     c-3.4,13.7-3.5,27.4-0.8,40.3c0.1,0,0.2,0,0.2-0.1c24-5.7,22.5-27.2,23.4-30.4C132.4,139.9,131.4,92.4,131.4,92.1z"/>
			<path class="st3" d="M191.1,263.2c-11.2-11.2-15.2-19.7-16.2-21.4c-2,1.2-9.6,6.5-24.4,10.7c-12.8,3.7-30.4,1.5-49.7-11.4l1.7,2     l3.1,3.3c2.7,2.9,10.5,9.3,10.5,9.3c12.2,10.1,25.1,16.1,25.1,16.1c0.9,0.5,1.9,0.9,2.8,1.4c5.3,2.4,10.9,4.3,16.4,5.9     c8.7,2.6,19.2,5,29.3,5.4c0,0,1.7,0.1,4.7,0.2c3.9,0,9.8-0.1,16.5-0.8c12.7-1.5,23.3-4.6,27.5-6l1.7-0.6     C217,279.2,200.6,272.6,191.1,263.2z"/>
			<path class="st4" d="M282.2,129.7c1.2-2.1,6.3-10,10-24.7c3.2-12.9,0.5-30.4-13-49.3c0,0-7.6-6.6-13.3-9.7     c-8.4-4.8-15.2-7-24.2-3.9c-11.8,4-17.7,23.8-18.6,27.2C252.4,78.5,273.9,101.8,282.2,129.7z"/>
			<path class="st5" d="M282.2,129.7C282.1,129.7,282.2,129.7,282.2,129.7c-0.1,0.2-0.1,0.3-0.2,0.4c0,0-23.1,41.3-23.9,44.5     c-0.7,3.2-12.2,21.4,6.4,37.8c0,0,0.2,0.2,0.4,0.4c2.6,2.4,18.2,15.8,30.3,12.8c9.2-2.3,13.7-7.8,18.3-16.3     c2.4-5.2,3.8-7.9,6.2-15.2c0,0,0.2-0.7,0.6-2l-0.6,1.7c1.2-23.1-5.9-39.4-15.6-48.5C292.7,134.6,284,130.8,282.2,129.7"/>
			<path class="st6" d="M222.9,69.8c-6.8,23.8,12.7,33,15,35.2c2.3,2.3,44.1,24.6,44.1,24.6c0.1,0,0.1,0.1,0.2,0.1c0,0,0,0,0,0     c-8.2-27.9-29.8-51.2-59.2-60.4C222.9,69.6,222.9,69.7,222.9,69.8z"/>
			<path class="st7" d="M325.6,148c-0.1-2.9-0.3-4.7-0.3-4.7c-0.7-10.1-3.5-20.6-6.4-29.1c-1.7-5.4-3.8-10.9-6.4-16.2     c-0.5-0.9-0.9-1.9-1.4-2.8c0,0-6.4-12.7-16.8-24.6c0,0-6.7-7.5-9.6-10.2l-3.4-3l-2.1-1.7c13.5,18.8,16.2,36.3,13,49.3     c-3.7,14.8-8.7,22.5-9.9,24.7c0,0,0,0.1,0,0.1c0,0,0.1,0,0.1,0.1c1.9,1,10.4,4.8,21.8,15.5c9.7,9.2,16.8,25.4,15.6,48.5l0.6-1.7     c1.2-4.2,4-14.9,5.1-27.6C325.9,157.7,325.8,151.8,325.6,148z"/>
			<path class="st8" d="M256.9,221.5c0,0-0.1-0.1-0.1-0.1c-4.7,4.2-9.8,7.9-15.3,11.1c-19.5,11.2-43.2,15.2-66.6,9.4     c1,1.7,5,10.2,16.2,21.4c9.5,9.4,25.9,16,49,14.1l-1.7,0.6c1.3-0.4,1.9-0.7,1.9-0.7c7.1-2.6,9.9-4.1,14.9-6.7     c8.4-4.8,13.8-9.5,15.8-18.8C273.9,238.5,257.1,221.6,256.9,221.5z"/>
			<path class="st9" d="M218.9,216.3c-3.1,0.8-44,25.4-44.1,25.5c0,0,0,0,0,0c23.5,5.8,47.2,1.8,66.6-9.4     c5.4-3.1,10.6-6.8,15.3-11.1C239.9,203.5,222.1,215.5,218.9,216.3z"/>
			<path class="st10" d="M174.8,241.7C174.8,241.7,174.8,241.6,174.8,241.7c-0.1-0.1-23.7-41.1-26-43.4     c-2.3-2.3-12.2-21.4-35.7-13.9c0,0-0.4,0.1-1,0.3c-4.5,1.4-22.6,7.9-26.1,19.3c-2.8,9.1-0.3,15.8,4.7,24.1     c3.3,5.6,10.1,13,10.1,13c19.3,12.9,36.8,15.1,49.7,11.4c14.9-4.2,22.5-9.6,24.4-10.7C174.8,241.8,174.8,241.7,174.8,241.7z"/>
			<path class="st11" d="M131.7,92.1C131.7,92.1,131.7,92.1,131.7,92.1c-0.1,0-0.2,0-0.3,0c0,0.1,0-0.1,0,0"/>
			<polygon class="st2" points="131.4,92.1 131.4,92.1 131.4,92.1    "/>
			<polygon class="st12" points="131.4,92.1 131.4,92.1 131.4,92.1    "/>
			<path class="st12" d="M108.8,133.1c4-15.9,11.9-30.1,22.6-41c-2,0.1-11.3-0.7-26.6,3.5c-12.9,3.5-26.8,14.5-36.6,35.5l0.3-1.8     c-0.3,1.3-0.4,2-0.4,2c-1.3,7.5-1.4,10.6-1.7,16.3c0,9.7,1.4,16.7,8.5,23c9.7,8.7,31.1,3.4,33.2,2.8     C105.3,160.5,105.4,146.8,108.8,133.1z"/>
			<path class="st13" d="M104.8,95.6c15.3-4.2,24.7-3.4,26.6-3.5c0-2.3-0.9-11.5,2.8-26.5c3.2-13,13.9-27.1,34.6-37.4l-2.6,0.5     l-4.5,1.1c-3.8,1-13.3,4.5-13.3,4.5C133.7,39.8,122.1,48,122.1,48c-0.9,0.6-11.8,9.1-15.8,13.1C99.7,67.3,92.3,75.2,87,83.8     c0,0-1,1.5-2.5,4c-2,3.3-4.8,8.5-7.5,14.7c-5,11.8-7.6,22.5-8.5,26.8l-0.3,1.8C78,110.1,91.9,99.1,104.8,95.6z"/>
			<path class="st14" d="M208.4,33.8c-6.5-6.9-13.5-8.1-23.2-7.9c-6.5,0.1-16.3,2.3-16.3,2.3c-20.8,10.3-31.4,24.5-34.6,37.4     c-3.7,15-2.9,24.3-2.8,26.5c0.1,0,47.7-0.1,50.7-1c3.1-0.9,24.6,0.1,29.8-24.1c0,0,0.1-0.2,0.1-0.5     C212.9,63,216.9,42.9,208.4,33.8z"/>
		</g>
		<g>
			<g>
				<path class="st15" d="M713.8,149.4c1.9,14.3,14.3,24.5,34.4,24.5c8.8,0,19.8-2.7,27-7.6c2.5-1.7,5.9-1.2,8,0.9l9.2,9.1      c2.8,2.7,2.6,7.4-0.5,9.7c-12.2,9.3-29,13.8-44.2,13.8c-39.8,0-63.5-24.5-63.5-61.5c0-35.1,23.9-60.3,61.3-60.3      c34.8,0,57.9,19.4,58.8,58c0.2,7.3-5.7,13.3-13,13.3L713.8,149.4z M776.5,125.8c-1.9-15-13.6-22.4-30-22.4      c-15.5,0-28.1,7.5-32.3,22.4H776.5z"/>
				<path class="st15" d="M411.1,149.4c1.9,14.3,14.3,24.5,34.4,24.5c8.8,0,19.8-2.7,27-7.6c2.5-1.7,5.9-1.2,8,0.9l9.2,9.1      c2.8,2.7,2.6,7.4-0.5,9.7c-12.2,9.3-29,13.8-44.2,13.8c-39.8,0-63.5-24.5-63.5-61.5c0-35.1,23.9-60.3,61.3-60.3      c34.8,0,57.9,19.4,58.8,58c0.2,7.3-5.7,13.3-13,13.3L411.1,149.4z M473.9,125.8c-1.9-15-13.6-22.4-30-22.4      c-15.5,0-28.1,7.5-32.3,22.4H473.9z"/>
				<path class="st15" d="M589.3,107.4c-2.2,2.5-5.9,3-8.7,1.1c-7.1-4.9-15-6.6-24-6.6c-13.6,0-21.1,4.2-21.1,11.5      c0,7.5,6.8,11.7,21.5,12.6c21.8,1.4,49.4,6.3,49.4,36.9c0,20.3-16.6,37.9-49.6,37.9c-16.8,0-33.6-2.6-49.3-16.7      c-2.4-2.2-2.8-5.8-0.9-8.4c2-2.9,4.6-6.7,6.8-9.8c2.1-3,6.2-3.7,9.1-1.6c9.4,6.8,24.1,11.5,34.8,11.7      c10.8,0.2,20.8-5.4,20.8-13.8c0-7.9-6.6-11.2-22.9-12.2c-21.8-1.6-47.8-9.6-47.8-35.8c0-26.7,27.6-36,48.7-36      c15.5,0,27.8,2.6,39.4,10.8c3.1,2.2,3.7,6.6,1.2,9.5L589.3,107.4z"/>
				<path class="st15" d="M624.8,196.8v-88.6h-21.5v-25h21.5v-7.7c0-30.9,20.8-45.1,44-45.1c8.1,0,16.5,2.1,24.3,6.1      c3.2,1.6,4.5,5.5,2.9,8.7l-2,4c-2.9,5.8-9.5,9-15.7,7c-2.6-0.8-5.1-1.2-7.7-1.2c-9.8,0-17.3,6.5-17.3,20.6v7.7h33.9v12      c0,7.2-5.8,13-13,13h-20.9v75.6c0,7.2-5.8,13-13,13H624.8z"/>
				<path class="st15" d="M839.8,87.1l1.2,7.8c8.9-14.3,20.8-16.4,32.5-16.4c9.4,0,18.6,2.9,25.1,7.2c2.8,1.8,3.7,5.5,2.2,8.4      l-10.4,20.1c-5.9-4.9-11.2-7.5-20.6-7.5c-15,0-28.8,8-28.8,29.2v47.8c0,7.2-5.8,13-13,13h-15.6V88.1c0-3.6,2.9-6.5,6.5-6.5h14.4      C836.6,81.6,839.3,83.9,839.8,87.1z"/>
				<path class="st15" d="M995.4,81.6l21.8,0c3.6,0,6.5,2.9,6.5,6.5v95.8c0,7.2-5.8,13-13,13l-15.3,0.1l0-16.9      c-6.6,13.6-24.6,20.1-37.5,20.3c-34.2,0.2-59.5-20.8-59.5-61.3c0-39.7,26.5-60.6,60.2-60.3c15.5,0,30.2,7.2,36.8,18.7      L995.4,81.6z M927,139.1c0,23.6,17.6,37,38.4,34.9c41.1-4.1,41-65.5-0.1-69.5C944.5,102.4,927,115.5,927,139.1z"/>
			</g>
			<g>
				<path class="st15" d="M405,230.7c0,5-7.6,5-7.6,0C397.4,225.8,405,225.8,405,230.7z M398,237.9v25.8h6.4v-25.8H398z"/>
				<path class="st15" d="M434.6,263.7v-13.5c0-3.9-2.2-6.9-6.3-6.9c-4,0-6.6,3.3-6.6,7.2v13.2h-6.4v-25.8h5.7l0.4,3.5      c2.6-2.6,5.3-3.9,8.5-3.9c6.1,0,11,4.5,11,12.6v13.5H434.6z"/>
				<path class="st15" d="M459.8,230.7v7.3h7.2v5.5h-7.2v11.1c0,2.5,1.4,3.7,3.4,3.7c1,0,2.2-0.3,3.1-0.8l1.8,5.4      c-1.8,0.7-3.4,1-5.3,1.1c-5.6,0.2-9.3-3-9.3-9.4v-11.1h-4.9V238h4.9v-6.6L459.8,230.7z"/>
				<path class="st15" d="M482.6,253.1c0.4,3.2,3.2,5.5,7.8,5.5c2.4,0,5.5-0.9,7-2.4l4.1,4c-2.7,2.8-7.2,4.2-11.2,4.2      c-9,0-14.3-5.5-14.3-13.7c0-7.8,5.4-13.5,13.8-13.5c8.7,0,14.1,5.3,13.1,15.9H482.6z M496.7,247.8c-0.4-3.3-3.1-5-6.7-5      c-3.5,0-6.3,1.7-7.3,5H496.7z"/>
				<path class="st15" d="M519.5,227.2v36.5h-6.4v-36.5H519.5z"/>
				<path class="st15" d="M537.4,230.7c0,5-7.6,5-7.6,0C529.8,225.8,537.4,225.8,537.4,230.7z M530.4,237.9v25.8h6.4v-25.8H530.4z"/>
				<path class="st15" d="M568.3,235.4l4.7,3.5l-2.9,3.7c2,2.2,2.7,4.8,2.7,7.6c0,3.2-1.2,7.7-5.5,9.6c4.3,2.1,5.4,5.2,5.4,8.5      c0,7.1-5.5,11.5-13,11.5c-7.5,0-13.2-4.5-13.2-11.5h6.4c0,3.3,3.1,5.5,6.8,5.5s6.6-2,6.6-5.5c0-3.6-3.4-5.2-6.6-5.2      c-8.1,0-13.2-4.9-13.2-12.9c0-8,5.9-13.1,13.2-13.1c2.1,0,4.2,0.3,6,1.5L568.3,235.4z M553,250.2c0,4.5,3.1,7.2,6.8,7.2      c3.7,0,6.7-2.7,6.7-7.2c0-4.4-3.1-7.3-6.7-7.3C556,242.9,553,245.7,553,250.2z"/>
				<path class="st15" d="M587.8,253.1c0.4,3.2,3.2,5.5,7.8,5.5c2.4,0,5.5-0.9,7-2.4l4.1,4c-2.7,2.8-7.2,4.2-11.2,4.2      c-9,0-14.3-5.5-14.3-13.7c0-7.8,5.4-13.5,13.8-13.5c8.7,0,14.1,5.3,13.1,15.9H587.8z M593.5,226.5h3.5l7.8,7.2v0.3h-6.5      l-3.1-3.1l-3,3.1h-6.5v-0.3L593.5,226.5z M601.9,247.8c-0.4-3.3-3.1-5-6.7-5c-3.5,0-6.3,1.7-7.3,5H601.9z"/>
				<path class="st15" d="M637.4,263.7v-13.5c0-3.9-2.2-6.9-6.3-6.9c-4,0-6.6,3.3-6.6,7.2v13.2h-6.4v-25.8h5.7l0.4,3.5      c2.6-2.6,5.3-3.9,8.5-3.9c6.1,0,11,4.5,11,12.6v13.5H637.4z"/>
				<path class="st15" d="M677,260.4c-3,2.9-6.2,4.1-10,4.1c-7.5,0-13.8-4.5-13.8-13.6s6.3-13.6,13.8-13.6c3.7,0,6.5,1,9.4,3.8      l-4.1,4.2c-1.5-1.4-3.4-2-5.2-2c-4.3,0-7.5,3.1-7.5,7.6c0,4.9,3.4,7.5,7.4,7.5c2.1,0,4.1-0.6,5.7-2.1L677,260.4z"/>
				<path class="st15" d="M692.1,230.7c0,5-7.6,5-7.6,0C684.5,225.8,692.1,225.8,692.1,230.7z M685.1,237.9v25.8h6.4v-25.8H685.1z"/>
				<path class="st15" d="M723.2,238h6.2v25.7h-6.1L723,260c-1.5,3-5.5,4.5-8.4,4.5c-7.7,0.1-13.4-4.6-13.4-13.7      c0-8.9,6-13.5,13.6-13.5c3.5,0,6.8,1.6,8.3,4.2L723.2,238z M707.6,250.8c0,4.9,3.4,7.8,7.7,7.8c10.1,0,10.1-15.6,0-15.6      C711.1,243,707.6,245.9,707.6,250.8z"/>
				<path class="st15" d="M781.8,253.1h-20.3c0.4,3.2,3.2,5.5,7.8,5.5c2.4,0,5.5-0.9,7-2.4l4.1,4c-2.7,2.8-7.2,4.2-11.2,4.2      c-9,0-14.3-5.5-14.3-13.7c0-7.8,5.4-13.5,13.8-13.5C777.4,237.2,782.8,242.5,781.8,253.1z M761.6,247.8h14c-0.4-3.3-3.1-5-6.7-5      C765.4,242.8,762.6,244.5,761.6,247.8z M776.3,226.4h-7.6l-3.9,7.1v0.3h5.7l5.8-7.2V226.4z"/>
				<path class="st15" d="M813.5,253.1c0.4,3.2,3.2,5.5,7.8,5.5c2.4,0,5.5-0.9,7-2.4l4.1,4c-2.7,2.8-7.2,4.2-11.2,4.2      c-9,0-14.3-5.5-14.3-13.7c0-7.8,5.4-13.5,13.8-13.5c8.7,0,14.1,5.3,13.1,15.9H813.5z M827.6,247.8c-0.4-3.3-3.1-5-6.7-5      c-3.5,0-6.3,1.7-7.3,5H827.6z"/>
				<path class="st15" d="M863.1,263.7v-13.5c0-3.9-2.2-6.9-6.3-6.9c-4,0-6.6,3.3-6.6,7.2v13.2h-6.4v-25.8h5.7l0.4,3.5      c2.6-2.6,5.3-3.9,8.5-3.9c6.1,0,11,4.5,11,12.6v13.5H863.1z"/>
				<path class="st15" d="M885.9,253.1c0.4,3.2,3.2,5.5,7.8,5.5c2.4,0,5.5-0.9,7-2.4l4.1,4c-2.7,2.8-7.2,4.2-11.2,4.2      c-9,0-14.3-5.5-14.3-13.7c0-7.8,5.4-13.5,13.8-13.5c8.7,0,14.1,5.3,13.1,15.9H885.9z M900,247.8c-0.4-3.3-3.1-5-6.7-5      c-3.5,0-6.3,1.7-7.3,5H900z"/>
				<path class="st15" d="M922.4,238l0.5,3c2-3.2,4.7-3.7,7.3-3.7c2.7,0,5.3,1,6.7,2.5l-2.9,5.5c-1.3-1.1-2.5-1.7-4.6-1.7      c-3.4,0-6.5,1.8-6.5,6.5v13.6h-6.4V238H922.4z"/>
				<path class="st15" d="M965,235.4l4.7,3.5l-2.9,3.7c2,2.2,2.7,4.8,2.7,7.6c0,3.2-1.2,7.7-5.5,9.6c4.3,2.1,5.4,5.2,5.4,8.5      c0,7.1-5.5,11.5-13,11.5c-7.5,0-13.2-4.5-13.2-11.5h6.4c0,3.3,3.1,5.5,6.8,5.5s6.6-2,6.6-5.5c0-3.6-3.4-5.2-6.6-5.2      c-8.1,0-13.2-4.9-13.2-12.9c0-8,5.9-13.1,13.2-13.1c2.1,0,4.2,0.3,6,1.5L965,235.4z M949.6,250.2c0,4.5,3.1,7.2,6.8,7.2      c3.7,0,6.7-2.7,6.7-7.2c0-4.4-3.1-7.3-6.7-7.3C952.7,242.9,949.6,245.7,949.6,250.2z"/>
				<path class="st15" d="M986,230.7c0,5-7.6,5-7.6,0C978.4,225.8,986,225.8,986,230.7z M978.9,237.9v25.8h6.4v-25.8H978.9z"/>
				<path class="st15" d="M1017.1,238h6.2v25.7h-6.1l-0.3-3.8c-1.5,3-5.5,4.5-8.4,4.5c-7.7,0.1-13.4-4.6-13.4-13.7      c0-8.9,6-13.5,13.6-13.5c3.5,0,6.8,1.6,8.3,4.2L1017.1,238z M1001.5,250.8c0,4.9,3.4,7.8,7.7,7.8c10.1,0,10.1-15.6,0-15.6      C1004.9,243,1001.5,245.9,1001.5,250.8z"/>
			</g>
		</g>
		<g>
			<path class="st13" d="M1298.5,78.5c-18.1,0-32.7,5.8-43.8,17.5c-11,11.7-16.6,26.1-16.6,43.3c0,17.4,5.5,31.8,16.4,43.4     c11,11.6,25.7,17.4,44.1,17.4s33.2-5.8,44.2-17.4c11-11.6,16.6-26.1,16.6-43.4c0-17.2-5.6-31.6-16.9-43.3     C1331.4,84.3,1316.7,78.5,1298.5,78.5z M1322.1,163.6c-5.6,6.7-13.4,10.1-23.3,10.1c-9.9,0-17.7-3.3-23.3-10.1     c-5.6-6.7-8.4-14.8-8.4-24.3c0-9.5,2.8-17.6,8.4-24.4c5.6-6.8,13.4-10.2,23.3-10.2c9.3,0,16.9,3.5,22.8,10.4     c5.9,6.9,8.9,15,8.9,24.1C1330.5,148.8,1327.7,156.9,1322.1,163.6z"/>
			<path class="st13" d="M1171.1,93.9c-11-10.6-25.3-15.9-42.9-15.9c-6.8,0-14.1,1.7-21.9,5.1c-7.8,3.4-13.3,7.9-16.4,13.6V81.1     V54.6c0-0.2,0-0.3,0-0.5c-0.2-9.4-6.1-17.3-14.4-20.5c-2.5-1-5.2-1.5-8-1.5h-6.4v0l0,0v22.5v26.5v15.6l0,0.8v100h27l1.9-16.1     c8,12.5,20.6,18.7,37.6,18.7c17.5,0,31.9-5.5,43.2-16.4c11.3-11,16.9-25.8,16.9-44.6C1187.5,119.5,1182,104.4,1171.1,93.9z      M1149.1,163.8c-6.4,6.4-14.2,9.6-23.5,9.6c-9.5,0-17.5-3.2-24-9.5c-6.5-6.3-9.8-14.6-9.8-24.8c0-9.9,3.3-18.1,9.9-24.5     c6.6-6.4,14.6-9.6,23.9-9.6c9.5,0,17.4,3.1,23.7,9.3c6.3,6.2,9.5,14.5,9.5,24.7C1158.6,149.2,1155.4,157.4,1149.1,163.8z"/>
			<path class="st13" d="M1221.5,32.1c-12.3,0-22.3,10-22.3,22.3c0,0,0,0,0,0v26.3h0v116.8h28.6V80.7h0V63.6v-9.3V32.1h0H1221.5z"/>
			<path class="st13" d="M1477.3,161.5c3.9-8.2,5.8-16.6,5.8-25.3c0-13.7-4.1-25.1-12.2-34.4l0.1-0.1l11.2-14.5l1.6-2.1l-0.1,0     l-4.7-3.6c-0.5-0.4-0.9-0.7-1.4-1c-8.5-5.5-19.7-4.2-26.6,3.1c0,0-0.1,0.1-0.1,0.1c-6.5-4.4-15.4-6.6-26.7-6.6     c-16.7,0-30.8,5.4-42.1,16.2c-11.4,10.8-17,25.1-17,42.9c0,18.1,5.3,32.5,15.9,42.9c10.6,10.5,25,15.7,43.3,15.7     c7.9,0,14.8,2,20.7,6c5.9,4,8.9,9.8,8.9,17.4c0,7.9-2.8,14-8.4,18.5c-5.6,4.4-12.7,6.6-21.2,6.6c-8.5,0-15.7-2.3-21.7-7     c-5.9-4.7-8.9-10.7-8.9-18.1H1365c0,15.5,5.6,28,16.7,37.6c11.1,9.6,25.3,14.4,42.5,14.4c17.2,0,31.2-4.7,42.1-14.2     c10.9-9.5,16.3-22.1,16.3-37.9c0-17.7-8-30.5-24.1-38.6C1467.1,175.8,1473.4,169.7,1477.3,161.5z M1445.7,159.8     c-5.8,5.9-13,8.9-21.5,8.9c-8.7,0-15.9-2.9-21.8-8.8c-5.8-5.8-8.8-13.7-8.8-23.7c0-9.9,2.9-17.9,8.8-23.9c5.8-6,13.1-9,21.8-9     c8.5,0,15.7,3,21.5,9.1c5.8,6.1,8.8,14,8.8,23.8C1454.4,146,1451.5,153.9,1445.7,159.8z"/>
		</g>
	</g>
</g>
</svg>