<svg width="260" height="260" viewBox="0 0 260 260" fill="none" xmlns="http://www.w3.org/2000/svg">
<path opacity="0.2" d="M65.3996 67.1001C54.7996 78.1001 46.7996 92.2001 42.7996 108.1C39.3996 121.8 39.2996 135.5 41.9996 148.4C42.0996 148.4 42.1996 148.4 42.1996 148.3C66.1996 142.6 64.6996 121.1 65.5996 117.9C66.3996 114.9 65.3996 67.4001 65.3996 67.1001Z" fill="#EF446D"/>
<path d="M125.1 238.2C113.9 227 109.9 218.5 108.9 216.8C106.9 218 99.2998 223.3 84.4998 227.5C71.6998 231.2 54.0998 229 34.7998 216.1L36.4998 218.1L39.5998 221.4C42.2998 224.3 50.0998 230.7 50.0998 230.7C62.2998 240.8 75.1998 246.8 75.1998 246.8C76.0998 247.3 77.0998 247.7 77.9998 248.2C83.2998 250.6 88.8998 252.5 94.3998 254.1C103.1 256.7 113.6 259.1 123.7 259.5C123.7 259.5 125.4 259.6 128.4 259.7C132.3 259.7 138.2 259.6 144.9 258.9C157.6 257.4 168.2 254.3 172.4 252.9L174.1 252.3C151 254.2 134.6 247.6 125.1 238.2Z" fill="#FAA31A"/>
<path opacity="0.4" d="M216.2 104.7C217.4 102.6 222.5 94.6999 226.2 79.9999C229.4 67.0999 226.7 49.5999 213.2 30.6999C213.2 30.6999 205.6 24.0999 199.9 20.9999C191.5 16.1999 184.7 13.9999 175.7 17.0999C163.9 21.0999 158 40.8999 157.1 44.2999C186.4 53.4999 207.9 76.7999 216.2 104.7Z" fill="#948531"/>
<path opacity="0.85" d="M216.2 104.7C216.1 104.7 216.2 104.7 216.2 104.7C216.1 104.9 216.1 105 216 105.1C216 105.1 192.9 146.4 192.1 149.6C191.4 152.8 179.9 171 198.5 187.4C198.5 187.4 198.7 187.6 198.9 187.8C201.5 190.2 217.1 203.6 229.2 200.6C238.4 198.3 242.9 192.8 247.5 184.3C249.9 179.1 251.3 176.4 253.7 169.1C253.7 169.1 253.9 168.4 254.3 167.1L253.7 168.8C254.9 145.7 247.8 129.4 238.1 120.3C226.7 109.6 218 105.8 216.2 104.7Z" fill="#948531"/>
<path opacity="0.2" d="M156.9 44.8C150.1 68.6 169.6 77.8 171.9 80C174.2 82.3 216 104.6 216 104.6C216.1 104.6 216.1 104.7 216.2 104.7C208 76.8 186.4 53.5 157 44.3C156.9 44.6 156.9 44.7 156.9 44.8Z" fill="#948531"/>
<path d="M259.6 123C259.5 120.1 259.3 118.3 259.3 118.3C258.6 108.2 255.8 97.6999 252.9 89.1999C251.2 83.7999 249.1 78.3 246.5 73C246 72.1 245.6 71.0999 245.1 70.1999C245.1 70.1999 238.7 57.4999 228.3 45.5999C228.3 45.5999 221.6 38.1 218.7 35.4L215.3 32.4L213.2 30.7C226.7 49.5 229.4 67 226.2 80C222.5 94.8 217.5 102.5 216.3 104.7V104.8C216.3 104.8 216.4 104.8 216.4 104.9C218.3 105.9 226.8 109.7 238.2 120.4C247.9 129.6 255 145.8 253.8 168.9L254.4 167.2C255.6 163 258.4 152.3 259.5 139.6C259.9 132.7 259.8 126.8 259.6 123Z" fill="#948531"/>
<path opacity="0.4" d="M190.9 196.5L190.8 196.4C186.1 200.6 181 204.3 175.5 207.5C156 218.7 132.3 222.7 108.9 216.9C109.9 218.6 113.9 227.1 125.1 238.3C134.6 247.7 151 254.3 174.1 252.4L172.4 253C173.7 252.6 174.3 252.3 174.3 252.3C181.4 249.7 184.2 248.2 189.2 245.6C197.6 240.8 203 236.1 205 226.8C207.9 213.5 191.1 196.6 190.9 196.5Z" fill="#FAA31A"/>
<path opacity="0.2" d="M152.9 191.3C149.8 192.1 108.9 216.7 108.8 216.8C132.3 222.6 156 218.6 175.4 207.4C180.8 204.3 186 200.6 190.7 196.3C173.9 178.5 156.1 190.5 152.9 191.3Z" fill="#FAA31A"/>
<path opacity="0.85" d="M108.8 216.7C108.8 216.7 108.8 216.6 108.8 216.7C108.7 216.6 85.1004 175.6 82.8004 173.3C80.5004 171 70.6004 151.9 47.1004 159.4C47.1004 159.4 46.7004 159.5 46.1004 159.7C41.6004 161.1 23.5004 167.6 20.0004 179C17.2004 188.1 19.7004 194.8 24.7004 203.1C28.0004 208.7 34.8004 216.1 34.8004 216.1C54.1004 229 71.6004 231.2 84.5004 227.5C99.4004 223.3 107 217.9 108.9 216.8C108.8 216.8 108.8 216.7 108.8 216.7Z" fill="#FAA31A"/>
<path opacity="0.4" d="M42.8004 108.1C46.8004 92.2 54.7004 78 65.4004 67.1C63.4004 67.2 54.1004 66.4 38.8004 70.6C25.9004 74.1 12.0004 85.1 2.20039 106.1L2.50039 104.3C2.20039 105.6 2.10039 106.3 2.10039 106.3C0.800388 113.8 0.700391 116.9 0.400391 122.6C0.400391 132.3 1.80039 139.3 8.90039 145.6C18.6004 154.3 40.0004 149 42.1004 148.4C39.3004 135.5 39.4004 121.8 42.8004 108.1Z" fill="#EF446D"/>
<path d="M38.8002 70.5999C54.1002 66.3999 63.5002 67.1999 65.4002 67.0999C65.4002 64.7999 64.5002 55.5999 68.2002 40.5999C71.4002 27.5999 82.1002 13.5 102.8 3.19995L100.2 3.69995L95.7002 4.79995C91.9002 5.79995 82.4002 9.29995 82.4002 9.29995C67.7002 14.7999 56.1002 23 56.1002 23C55.2002 23.6 44.3002 32.0999 40.3002 36.0999C33.7002 42.2999 26.3002 50.2 21.0002 58.8C21.0002 58.8 20.0002 60.3 18.5002 62.8C16.5002 66.1 13.7002 71.3 11.0002 77.5C6.0002 89.3 3.4002 100 2.5002 104.3L2.2002 106.1C12.0002 85.1 25.9002 74.0999 38.8002 70.5999Z" fill="#EF446D"/>
<path opacity="0.85" d="M142.4 8.79996C135.9 1.89996 128.9 0.699957 119.2 0.899957C112.7 0.999957 102.9 3.19996 102.9 3.19996C82.1002 13.5 71.5002 27.7 68.3002 40.6C64.6002 55.6 65.4002 64.9 65.5002 67.1C65.6002 67.1 113.2 67 116.2 66.1C119.3 65.2 140.8 66.2 146 42C146 42 146.1 41.8 146.1 41.5C146.9 38 150.9 17.9 142.4 8.79996Z" fill="#EF446D"/>
</svg>
