<svg width="18" height="13" viewBox="0 0 18 13" fill="none" xmlns="http://www.w3.org/2000/svg">
<path d="M1 5.75C0.585786 5.75 0.25 6.08579 0.25 6.5C0.25 6.91421 0.585786 7.25 1 7.25V5.75ZM17 6.5L17.5335 7.02715C17.8222 6.735 17.8222 6.265 17.5335 5.97285L17 6.5ZM12.099 0.472854C11.8078 0.178213 11.333 0.17537 11.0383 0.466505C10.7437 0.757639 10.7408 1.2325 11.032 1.52715L12.099 0.472854ZM11.032 11.4729C10.7408 11.7675 10.7437 12.2424 11.0383 12.5335C11.333 12.8246 11.8078 12.8218 12.099 12.5271L11.032 11.4729ZM1 7.25H17V5.75H1V7.25ZM11.032 1.52715L16.4665 7.02715L17.5335 5.97285L12.099 0.472854L11.032 1.52715ZM12.099 12.5271L17.5335 7.02715L16.4665 5.97285L11.032 11.4729L12.099 12.5271Z" fill="#F5426C"/>
</svg>
