<svg width="16" height="14" viewBox="0 0 16 14" fill="none" xmlns="http://www.w3.org/2000/svg">
<path d="M7.78846 3.63315L2.66708 8.37846V13.5C2.66708 13.6326 2.71391 13.7598 2.79726 13.8536C2.8806 13.9473 2.99365 14 3.11152 14L6.2243 13.991C6.34179 13.9903 6.45426 13.9373 6.53713 13.8436C6.62 13.7499 6.66652 13.6231 6.66652 13.491V10.5C6.66652 10.3674 6.71335 10.2402 6.7967 10.1465C6.88004 10.0527 6.99309 10 7.11096 10H8.88874C9.00661 10 9.11966 10.0527 9.20301 10.1465C9.28636 10.2402 9.33319 10.3674 9.33319 10.5V13.4888C9.333 13.5546 9.34436 13.6198 9.36662 13.6806C9.38887 13.7414 9.42158 13.7967 9.46287 13.8433C9.50416 13.8899 9.55321 13.9269 9.60723 13.9521C9.66124 13.9774 9.71915 13.9903 9.77763 13.9903L12.8893 14C13.0072 14 13.1202 13.9473 13.2036 13.8536C13.2869 13.7598 13.3337 13.6326 13.3337 13.5V8.37503L8.21346 3.63315C8.15327 3.57856 8.07828 3.5488 8.00096 3.5488C7.92365 3.5488 7.84866 3.57856 7.78846 3.63315ZM15.8782 6.85846L13.556 4.70502V0.376587C13.556 0.277131 13.5208 0.181748 13.4583 0.111422C13.3958 0.0410958 13.311 0.00158691 13.2226 0.00158691H11.6671C11.5787 0.00158691 11.4939 0.0410958 11.4314 0.111422C11.3689 0.181748 11.3337 0.277131 11.3337 0.376587V2.64565L8.8468 0.343774C8.60813 0.12283 8.30865 0.00202858 7.99958 0.00202858C7.6905 0.00202858 7.39102 0.12283 7.15235 0.343774L0.120972 6.85846C0.0872183 6.88985 0.0592927 6.92841 0.0387905 6.97194C0.0182883 7.01547 0.00561132 7.06312 0.00148393 7.11217C-0.00264346 7.16121 0.00185963 7.21069 0.0147359 7.25778C0.0276121 7.30486 0.0486092 7.34863 0.0765273 7.38659L0.78486 8.35534C0.812702 8.39342 0.846948 8.42496 0.885637 8.44814C0.924326 8.47132 0.966699 8.48568 1.01033 8.49041C1.05396 8.49514 1.09799 8.49015 1.1399 8.47571C1.18182 8.46127 1.22079 8.43768 1.25458 8.40628L7.78846 2.3519C7.84866 2.29731 7.92365 2.26755 8.00096 2.26755C8.07828 2.26755 8.15327 2.29731 8.21346 2.3519L14.7476 8.40628C14.7814 8.43768 14.8203 8.46131 14.8621 8.47579C14.904 8.49028 14.948 8.49534 14.9916 8.4907C15.0352 8.48606 15.0775 8.47179 15.1162 8.44873C15.1549 8.42566 15.1892 8.39425 15.2171 8.35628L15.9254 7.38753C15.9533 7.34935 15.9742 7.30536 15.9869 7.25806C15.9996 7.21077 16.0039 7.16111 15.9995 7.11195C15.9952 7.06279 15.9822 7.01508 15.9614 6.97158C15.9405 6.92808 15.9123 6.88964 15.8782 6.85846Z" fill="#4F5150"/>
</svg>
