<svg xmlns="http://www.w3.org/2000/svg" width="30.001" height="30" viewBox="0 0 30.001 30">
  <path id="Subtração_1" data-name="Subtração 1" d="M-1495,1973a14.9,14.9,0,0,1-10.607-4.393A14.9,14.9,0,0,1-1510,1958a14.9,14.9,0,0,1,4.393-10.607A14.9,14.9,0,0,1-1495,1943a14.9,14.9,0,0,1,10.607,4.393A14.9,14.9,0,0,1-1480,1958a14.9,14.9,0,0,1-4.393,10.606A14.9,14.9,0,0,1-1495,1973Zm0-22.676c-1.368,0-2.582.021-3.166.054a4.534,4.534,0,0,0-3.216,1.237,4.53,4.53,0,0,0-1.239,3.217c-.072,1.273-.072,5.061,0,6.333a4.508,4.508,0,0,0,1.239,3.217,4.546,4.546,0,0,0,3.216,1.24c.587.033,1.8.054,3.166.054s2.579-.021,3.166-.054a4.511,4.511,0,0,0,3.216-1.24,4.545,4.545,0,0,0,1.24-3.217c.072-1.272.072-5.058,0-6.33a4.513,4.513,0,0,0-1.24-3.217,4.545,4.545,0,0,0-3.216-1.24C-1492.418,1950.344-1493.632,1950.323-1495,1950.323Zm1.362,13.977c-.3,0-.6,0-.812-.005s-.389,0-.548,0-.337,0-.536,0h-.045c-.226,0-.482,0-.746,0a11.023,11.023,0,0,1-3.2-.316,2.6,2.6,0,0,1-1.459-1.46,13.824,13.824,0,0,1-.312-3.976c0-.2,0-.389,0-.548s0-.337,0-.536a13.991,13.991,0,0,1,.312-3.989,2.6,2.6,0,0,1,1.459-1.46,10.8,10.8,0,0,1,3.163-.317c.3,0,.6,0,.813.005s.389,0,.548,0,.337,0,.536,0c.224,0,.5,0,.792,0a11.016,11.016,0,0,1,3.2.316,2.6,2.6,0,0,1,1.459,1.46,13.822,13.822,0,0,1,.312,3.977c0,.2,0,.389,0,.548s0,.344,0,.548a13.8,13.8,0,0,1-.312,3.976,2.6,2.6,0,0,1-1.459,1.46A10.8,10.8,0,0,1-1493.638,1964.3Zm-1.36-10.238a3.94,3.94,0,0,0-3.935,3.937,3.94,3.94,0,0,0,3.935,3.936,3.94,3.94,0,0,0,3.935-3.936A3.94,3.94,0,0,0-1495,1954.063Zm4.1-1.078a.919.919,0,0,0-.918.918.919.919,0,0,0,.918.918.919.919,0,0,0,.918-.918A.919.919,0,0,0-1490.9,1952.985Zm-4.1,7.573a2.562,2.562,0,0,1-2.559-2.559,2.562,2.562,0,0,1,2.559-2.559,2.561,2.561,0,0,1,2.558,2.559A2.561,2.561,0,0,1-1495,1960.558Z" transform="translate(1510 -1943)" fill="#fff"/>
</svg>
