<svg xmlns="http://www.w3.org/2000/svg" width="30" height="30" viewBox="0 0 30 30"><path d="M17.833,31.264h1.086v5.4h1.05v-5.4h1.085v-.919H17.833Z" transform="translate(-9.237 -15.001)" fill="#fff"/><path d="M28.137,22.176a.479.479,0,0,0,.339-.115.429.429,0,0,0,.126-.325v-2.8a.328.328,0,0,0-.129-.271.515.515,0,0,0-.337-.1.459.459,0,0,0-.312.1.339.339,0,0,0-.119.271v2.8a.444.444,0,0,0,.112.325A.42.42,0,0,0,28.137,22.176Z" transform="translate(-13.096 -10.396)" fill="#fff"/><path d="M31.077,31.944a.92.92,0,0,0-.429.111,1.436,1.436,0,0,0-.4.325V30.345h-.941v6.314h.941V36.3a1.2,1.2,0,0,0,.4.317,1.12,1.12,0,0,0,.488.1.771.771,0,0,0,.632-.263,1.162,1.162,0,0,0,.22-.759V33.112a1.375,1.375,0,0,0-.235-.87A.8.8,0,0,0,31.077,31.944Zm-.051,3.625a.5.5,0,0,1-.081.321.3.3,0,0,1-.251.1.544.544,0,0,1-.225-.05.759.759,0,0,1-.22-.164v-2.9a.653.653,0,0,1,.191-.143.434.434,0,0,1,.2-.046.362.362,0,0,1,.291.12.567.567,0,0,1,.1.359Z" transform="translate(-13.722 -15.001)" fill="#fff"/><path d="M25.52,36.6a1.314,1.314,0,0,1-.288.249.533.533,0,0,1-.259.1.229.229,0,0,1-.191-.074.392.392,0,0,1-.058-.238V33.063h-.93v3.9a1.007,1.007,0,0,0,.163.624.584.584,0,0,0,.487.207,1.138,1.138,0,0,0,.542-.147,2.084,2.084,0,0,0,.537-.432v.51h.931V33.064H25.52V36.6Z" transform="translate(-11.566 -16.063)" fill="#fff"/><path d="M18.722,5.155a15,15,0,1,0,15,15A15,15,0,0,0,18.722,5.155Zm2.423,7.408h1.047V16.5a.415.415,0,0,0,.068.263.255.255,0,0,0,.213.083.619.619,0,0,0,.292-.108,1.436,1.436,0,0,0,.322-.278V12.563h1.05v5.131h-1.05v-.567a2.2,2.2,0,0,1-.6.477,1.315,1.315,0,0,1-.608.164.662.662,0,0,1-.548-.231,1.085,1.085,0,0,1-.183-.688Zm-3.892,1.173a1.181,1.181,0,0,1,.422-.951,1.736,1.736,0,0,1,1.138-.352,1.546,1.546,0,0,1,1.067.372,1.233,1.233,0,0,1,.414.961v2.65a1.333,1.333,0,0,1-.406,1.033,1.606,1.606,0,0,1-1.123.373,1.554,1.554,0,0,1-1.1-.384,1.366,1.366,0,0,1-.413-1.042v-2.66Zm-2.856-3,.766,2.779h.075l.729-2.779h1.2l-1.373,4.07V17.7H14.614V14.939l-1.405-4.2Zm13.73,14.64a3.363,3.363,0,0,1-3.361,3.362H13.085a3.363,3.363,0,0,1-3.362-3.362v-2.7a3.362,3.362,0,0,1,3.362-3.362H24.766a3.362,3.362,0,0,1,3.361,3.362Z" transform="translate(-3.722 -5.155)" fill="#fff"/><path d="M35.919,32.874a1.4,1.4,0,0,0-1.02.382,1.311,1.311,0,0,0-.4.985v2.094a1.482,1.482,0,0,0,.361,1.056,1.284,1.284,0,0,0,.985.384,1.388,1.388,0,0,0,1.045-.361,1.489,1.489,0,0,0,.351-1.08V36.1h-.958v.212a1,1,0,0,1-.093.532.383.383,0,0,1-.323.12.349.349,0,0,1-.316-.14,1.023,1.023,0,0,1-.09-.512v-.877h1.78v-1.19a1.4,1.4,0,0,0-.342-1.015A1.313,1.313,0,0,0,35.919,32.874Zm.368,1.832h-.822v-.471a.687.687,0,0,1,.1-.418.372.372,0,0,1,.32-.129.359.359,0,0,1,.309.129.693.693,0,0,1,.1.418v.471Z" transform="translate(-15.753 -15.989)" fill="#fff"/></svg>