<svg xmlns="http://www.w3.org/2000/svg" width="29.999" height="30" viewBox="0 0 29.999 30"><path d="M18.722,5.155a15,15,0,1,0,15,15A15,15,0,0,0,18.722,5.155Zm8.354,22.286a1.222,1.222,0,0,1-1.237,1.207H11.575a1.222,1.222,0,0,1-1.237-1.207V13.011A1.222,1.222,0,0,1,11.575,11.8H25.839a1.223,1.223,0,0,1,1.237,1.207v14.43Z" transform="translate(-3.722 -5.155)" fill="#fff"/><path d="M30.015,26.441A2.509,2.509,0,0,0,27.737,27.7v.025h-.016a.136.136,0,0,0,.016-.025V26.619H25.209c.034.713,0,7.6,0,7.6h2.528V29.976a1.723,1.723,0,0,1,.083-.616,1.387,1.387,0,0,1,1.3-.926c.916,0,1.282.7,1.282,1.72v4.069h2.528v-4.36C32.926,27.527,31.678,26.441,30.015,26.441Z" transform="translate(-12.12 -13.475)" fill="#fff"/><path d="M19.946,20.712a1.318,1.318,0,1,0-.034,2.63h.016a1.319,1.319,0,1,0,.017-2.63Z" transform="translate(-9.504 -11.235)" fill="#fff"/><rect width="2.529" height="7.605" transform="translate(9.162 13.145)" fill="#fff"/></svg>