<svg width="20" height="20" viewBox="0 0 20 20" fill="none" xmlns="http://www.w3.org/2000/svg">
<path d="M10.2006 0.399902C4.89859 0.399902 0.600586 4.6979 0.600586 9.9999C0.600586 15.3019 4.89859 19.5999 10.2006 19.5999C15.5026 19.5999 19.8006 15.3019 19.8006 9.9999C19.8006 4.6979 15.5026 0.399902 10.2006 0.399902ZM7.85058 13.9789H5.90659V7.7229H7.85058V13.9789ZM6.86658 6.9549C6.25258 6.9549 5.85559 6.5199 5.85559 5.9819C5.85559 5.4329 6.26459 5.0109 6.89158 5.0109C7.51859 5.0109 7.90259 5.4329 7.91459 5.9819C7.91459 6.5199 7.51858 6.9549 6.86658 6.9549ZM14.9506 13.9789H13.0066V10.5119C13.0066 9.7049 12.7246 9.1569 12.0216 9.1569C11.4846 9.1569 11.1656 9.5279 11.0246 9.8849C10.9726 10.0119 10.9596 10.1919 10.9596 10.3709V13.9779H9.01459V9.7179C9.01459 8.9369 8.98958 8.2839 8.96358 7.7219H10.6526L10.7416 8.5909H10.7806C11.0366 8.1829 11.6636 7.5809 12.7126 7.5809C13.9916 7.5809 14.9506 8.4379 14.9506 10.2799V13.9789Z" fill="#F5426C"/>
</svg>
