<svg width="24" height="24" viewBox="0 0 24 24" fill="none" xmlns="http://www.w3.org/2000/svg">
<path fill-rule="evenodd" clip-rule="evenodd" d="M24 22.1243L17.1745 15.2989C18.3824 13.6995 19.0987 11.708 19.0987 9.54934C19.0987 4.27539 14.8233 0 9.54934 0C4.27539 0 0 4.27539 0 9.54934C0 14.8233 4.27539 19.0987 9.54934 19.0987C11.708 19.0987 13.6995 18.3824 15.2989 17.1745L22.1243 24L24 22.1243ZM16.4455 9.54924C16.4455 13.3582 13.3578 16.446 9.54879 16.446C5.73982 16.446 2.65204 13.3582 2.65204 9.54924C2.65204 5.74027 5.73982 2.65249 9.54879 2.65249C13.3578 2.65249 16.4455 5.74027 16.4455 9.54924Z" fill="#F5426C"/>
</svg>
