<svg width="24" height="24" viewBox="0 0 24 24" fill="none" xmlns="http://www.w3.org/2000/svg">
<path fill-rule="evenodd" clip-rule="evenodd" d="M24 22.1243L17.1745 15.2989C18.3824 13.6995 19.0987 11.708 19.0987 9.54934C19.0987 4.27539 14.8233 0 9.54934 0C4.27539 0 0 4.27539 0 9.54934C0 14.8233 4.27539 19.0987 9.54934 19.0987C11.708 19.0987 13.6995 18.3824 15.2989 17.1745L22.1243 24L24 22.1243ZM16.4458 9.54933C16.4458 13.3583 13.3581 16.4461 9.54909 16.4461C5.74012 16.4461 2.65234 13.3583 2.65234 9.54933C2.65234 5.74037 5.74012 2.65259 9.54909 2.65259C13.3581 2.65259 16.4458 5.74037 16.4458 9.54933Z" fill="white"/>
</svg>
