<svg width="11" height="13" viewBox="0 0 11 13" fill="none" xmlns="http://www.w3.org/2000/svg">
<path d="M9.01562 8.72656C8.59814 8.72656 8.21289 8.87305 7.91113 9.11768L4.87598 6.92188C4.9268 6.64292 4.9268 6.35708 4.87598 6.07812L7.91113 3.88232C8.21289 4.12695 8.59814 4.27344 9.01562 4.27344C9.98535 4.27344 10.7734 3.48535 10.7734 2.51562C10.7734 1.5459 9.98535 0.757812 9.01562 0.757812C8.0459 0.757812 7.25781 1.5459 7.25781 2.51562C7.25781 2.68555 7.28125 2.84814 7.32666 3.00342L4.44385 5.09082C4.01611 4.52393 3.33643 4.15625 2.57031 4.15625C1.27539 4.15625 0.226562 5.20508 0.226562 6.5C0.226562 7.79492 1.27539 8.84375 2.57031 8.84375C3.33643 8.84375 4.01611 8.47607 4.44385 7.90918L7.32666 9.99658C7.28125 10.1519 7.25781 10.3159 7.25781 10.4844C7.25781 11.4541 8.0459 12.2422 9.01562 12.2422C9.98535 12.2422 10.7734 11.4541 10.7734 10.4844C10.7734 9.51465 9.98535 8.72656 9.01562 8.72656ZM9.01562 1.75391C9.43604 1.75391 9.77734 2.09521 9.77734 2.51562C9.77734 2.93604 9.43604 3.27734 9.01562 3.27734C8.59521 3.27734 8.25391 2.93604 8.25391 2.51562C8.25391 2.09521 8.59521 1.75391 9.01562 1.75391ZM2.57031 7.78906C1.85986 7.78906 1.28125 7.21045 1.28125 6.5C1.28125 5.78955 1.85986 5.21094 2.57031 5.21094C3.28076 5.21094 3.85938 5.78955 3.85938 6.5C3.85938 7.21045 3.28076 7.78906 2.57031 7.78906ZM9.01562 11.2461C8.59521 11.2461 8.25391 10.9048 8.25391 10.4844C8.25391 10.064 8.59521 9.72266 9.01562 9.72266C9.43604 9.72266 9.77734 10.064 9.77734 10.4844C9.77734 10.9048 9.43604 11.2461 9.01562 11.2461Z" fill="#F5426C"/>
</svg>
