<svg width="20" height="20" viewBox="0 0 20 20" fill="none" xmlns="http://www.w3.org/2000/svg">
<path d="M10.0502 0.25C4.74877 0.25 0.450195 4.54857 0.450195 9.85C0.450195 15.1514 4.74877 19.45 10.0502 19.45C15.3516 19.45 19.6502 15.1514 19.6502 9.85C19.6502 4.54857 15.3516 0.25 10.0502 0.25ZM14.6638 7.48643C14.6702 7.58714 14.6702 7.69214 14.6702 7.795C14.6702 10.9407 12.2745 14.5643 7.89662 14.5643C6.54662 14.5643 5.2952 14.1721 4.24091 13.4971C4.43377 13.5186 4.61805 13.5271 4.8152 13.5271C5.92948 13.5271 6.95377 13.15 7.7702 12.5114C6.72448 12.49 5.84591 11.8043 5.54591 10.8614C5.91234 10.915 6.24234 10.915 6.61948 10.8186C6.08104 10.7092 5.59707 10.4167 5.2498 9.99096C4.90253 9.56518 4.71338 9.0323 4.71448 8.48286V8.45286C5.02948 8.63071 5.4002 8.74 5.78805 8.755C5.462 8.5377 5.19461 8.24331 5.00958 7.89792C4.82455 7.55253 4.7276 7.16683 4.72734 6.775C4.72734 6.33143 4.84305 5.92643 5.05091 5.575C5.64856 6.31072 6.39433 6.91245 7.23976 7.34107C8.08519 7.76969 9.01136 8.01562 9.95805 8.06286C9.62162 6.445 10.8302 5.13571 12.2831 5.13571C12.9688 5.13571 13.5859 5.42286 14.0209 5.88571C14.5588 5.785 15.0731 5.58357 15.5316 5.31357C15.3538 5.86429 14.9809 6.32929 14.4859 6.62286C14.9659 6.57143 15.4288 6.43857 15.8573 6.25214C15.5338 6.72786 15.1288 7.15 14.6638 7.48643Z" fill="#F5426C"/>
</svg>
